<svg xmlns="http://www.w3.org/2000/svg" xmlns:xlink="http://www.w3.org/1999/xlink" width="128" height="128" preserveAspectRatio="xMidYMid meet" viewBox="0 0 128 128" style="-ms-transform: rotate(360deg); -webkit-transform: rotate(360deg); transform: rotate(360deg);"><path d="M74.81 47.29s-.17.21-.48.6c-.3.39-.8.97-1.34 1.71c-.49.76-1.15 1.59-1.79 2.7c-.32.55-.67 1.13-1.03 1.74c-.34.62-.67 1.3-1.03 1.99c-.37.68-.7 1.43-1.03 2.21c-.32.78-.72 1.56-.99 2.41c-.3.84-.62 1.71-.94 2.59c-.27.9-.54 1.83-.81 2.77c-.3.93-.48 1.92-.72 2.9c-.23.98-.47 1.97-.62 3c-.17 1.02-.36 2.04-.52 3.07l-.39 3.12c-.15 1.03-.2 2.09-.28 3.13c-.06 1.04-.18 2.08-.2 3.11c-.02 2.07-.15 4.1-.05 6.07c.05 1.97.08 3.87.25 5.68c.14 1.8.22 3.51.44 5.08c.18 1.57.34 3.01.48 4.29c.2 1.27.37 2.38.51 3.29l.44 2.87l.02.11c.23 1.48-.79 2.87-2.27 3.09c-1.48.23-2.87-.79-3.09-2.27c0-.02-.01-.06-.01-.08c0 0-.14-1.08-.37-2.98c-.12-.95-.26-2.1-.43-3.42c-.11-1.33-.23-2.83-.36-4.46c-.16-1.63-.18-3.41-.25-5.29c-.1-1.88-.05-3.87-.02-5.92c-.02-2.05.2-4.18.3-6.33c.06-1.08.22-2.16.33-3.25c.13-1.09.22-2.18.42-3.26c.18-1.08.36-2.17.53-3.25c.22-1.07.48-2.14.71-3.2c.22-1.06.51-2.1.81-3.12c.31-1.02.55-2.04.92-3.01c.34-.98.68-1.93 1.01-2.87c.39-.92.76-1.82 1.13-2.69c.34-.88.8-1.69 1.18-2.5c.39-.8.78-1.57 1.21-2.29c.42-.72.8-1.41 1.2-2.06c.42-.63.83-1.22 1.21-1.78c.74-1.12 1.56-2.04 2.14-2.82c.62-.74 1.12-1.25 1.46-1.64c.34-.37.52-.57.52-.57c.44-.48 1.18-.52 1.66-.08c.48.43.53 1.13.14 1.61z" fill="#558B2F"/><linearGradient id="IconifyId-177542d81d6-f890bd-611" x1="63.352" x2="63.352" y1="124.29" y2="105.97" gradientUnits="userSpaceOnUse"><stop stop-color="#5D4037" offset=".002"/><stop stop-color="#8D6E63" offset="1"/></linearGradient><path d="M36.92 110.9c4.74-4.97 11.23-9.51 17.96-8.12c5.01 1.04 9.62 5.28 14.55 3.92c1.57-.43 2.95-1.41 4.54-1.76c3.72-.83 7.27 1.95 9.66 4.92s4.47 6.48 7.94 8.07c2.14.98 4.56 1.1 6.83 1.73s5.13 4.35 5.13 4.35l-80.36-.41s5.71-4.17 7.03-5.47c2.35-2.32 4.45-4.85 6.72-7.23z" fill="url(#IconifyId-177542d81d6-f890bd-611)"/><path d="M52.38 105.52c.64 0 1.27.06 1.89.19c1.53.32 3.12 1.04 4.8 1.82c2.61 1.2 5.31 2.43 8.36 2.43c.95 0 1.89-.13 2.79-.37c.97-.27 1.83-.67 2.59-1.02c.66-.31 1.28-.59 1.81-.71c.23-.05.46-.08.7-.08c1.75 0 3.98 1.48 5.97 3.95c.45.56.9 1.15 1.36 1.77c1.97 2.61 4.21 5.56 7.66 7.15c.23.1.45.2.68.29l-59.1-.3c.16-.14.3-.27.41-.38c1.45-1.42 2.8-2.92 4.1-4.37c.87-.97 1.77-1.97 2.67-2.91c3.26-3.41 8.2-7.46 13.31-7.46m0-3c-5.82 0-11.31 4.03-15.46 8.38c-2.27 2.38-4.37 4.91-6.71 7.22c-1.32 1.3-7.03 5.47-7.03 5.47l80.36.41s-2.86-3.71-5.13-4.35c-2.27-.63-4.69-.75-6.83-1.73c-3.47-1.59-5.55-5.1-7.94-8.07c-2.1-2.61-5.09-5.07-8.31-5.07c-.45 0-.9.05-1.35.15c-1.59.35-2.97 1.33-4.54 1.76c-.67.18-1.33.27-1.99.27c-4.2 0-8.23-3.29-12.56-4.19c-.85-.16-1.68-.25-2.51-.25z" fill="#424242" opacity=".2"/><linearGradient id="IconifyId-177542d81d6-f890bd-612" x1="9.817" x2="51.348" y1="34.963" y2="69.765" gradientUnits="userSpaceOnUse"><stop stop-color="#9CCC65" offset="0"/><stop stop-color="#689F38" offset=".995"/></linearGradient><path d="M4.2 32.24s-.82 25.92 20.04 37.82s36.16 3.92 36.16 3.92S64.4 28 4.2 32.24z" fill="url(#IconifyId-177542d81d6-f890bd-612)"/><path d="M11.79 34.7c16.53 0 28.87 4.31 36.69 12.8c8.31 9.02 9.2 20.47 9.22 24.64c-1.9.69-5.59 1.72-10.54 1.72c-7.13 0-14.39-2.08-21.57-6.18C10.1 58.85 7.46 41.31 7.02 34.82c1.62-.08 3.22-.12 4.77-.12m0-2.74c-2.41 0-4.93.09-7.59.28c0 0-.82 25.92 20.04 37.82c8.91 5.09 16.81 6.54 22.93 6.54c8.21 0 13.23-2.62 13.23-2.62s3.64-42.02-48.61-42.02z" fill="#424242" opacity=".2"/><linearGradient id="IconifyId-177542d81d6-f890bd-613" x1="67.623" x2="114.11" y1="56.992" y2="14.04" gradientUnits="userSpaceOnUse"><stop stop-color="#689F38" offset=".005"/><stop stop-color="#9CCC65" offset="1"/></linearGradient><path d="M123.92 7.86S93.78.02 76.31 20.61S64.09 61.7 64.09 61.7s51.7 12.69 59.83-53.84z" fill="url(#IconifyId-177542d81d6-f890bd-613)"/><path d="M110.48 9.13c4.42 0 8.13.5 10.39.89c-2.73 19.04-9.47 32.87-20.07 41.14c-9.28 7.24-19.74 8.76-26.89 8.76c-3.24 0-5.87-.31-7.47-.57c-.73-5.07-1.62-20.99 11.95-36.99c9.3-10.93 22.58-13.23 32.09-13.23m0-2.74c-10.25 0-24.25 2.53-34.17 14.21c-17.47 20.59-12.22 41.1-12.22 41.1s3.94.97 9.82.97c15.41 0 44.12-6.65 50-54.81c.01 0-5.63-1.47-13.43-1.47z" fill="#424242" opacity=".2"/><path d="M67.56 55.35s.47-.81 1.3-2.22c.41-.71.91-1.56 1.55-2.54c.63-.97 1.3-2.1 2.12-3.25c.8-1.17 1.66-2.44 2.64-3.73c.94-1.32 2.02-2.65 3.13-4.03c.54-.7 1.16-1.36 1.74-2.05c.59-.69 1.19-1.39 1.83-2.06c.63-.68 1.27-1.36 1.92-2.04c.67-.66 1.33-1.33 2-1.99c.66-.67 1.38-1.29 2.06-1.93s1.38-1.27 2.09-1.86c1.39-1.22 2.82-2.35 4.2-3.44c1.4-1.06 2.76-2.08 4.09-3c1.33-.91 2.58-1.77 3.78-2.51c1.18-.77 2.28-1.43 3.27-2c.98-.59 1.84-1.09 2.56-1.47c1.43-.79 2.25-1.24 2.25-1.24l-2.19 1.34c-.7.42-1.54.96-2.49 1.59c-.96.62-2.03 1.33-3.16 2.14c-1.16.79-2.37 1.7-3.64 2.67c-1.28.97-2.58 2.04-3.92 3.16c-1.32 1.14-2.68 2.32-4 3.59c-.68.62-1.33 1.26-1.98 1.93c-.64.67-1.32 1.3-1.94 1.99c-.63.68-1.26 1.37-1.88 2.05c-.6.7-1.2 1.4-1.79 2.1c-.6.69-1.16 1.4-1.71 2.11c-.54.71-1.12 1.38-1.62 2.09c-1.02 1.4-2.02 2.75-2.89 4.09c-.91 1.31-1.69 2.59-2.42 3.77c-.75 1.17-1.35 2.28-1.91 3.25c-.56.96-1.03 1.84-1.41 2.57c-.76 1.45-1.2 2.28-1.2 2.28c-.35.67-1.18.93-1.85.57s-.93-1.18-.57-1.85l.04-.08z" fill="#33691E" opacity=".2"/><path d="M54.46 68.86s-.43-.81-1.19-2.22c-.19-.35-.4-.74-.63-1.17c-.25-.4-.52-.83-.8-1.29c-.57-.93-1.2-1.98-2.01-3.07c-.39-.55-.8-1.13-1.22-1.72c-.46-.57-.93-1.16-1.41-1.76c-.94-1.24-2.1-2.4-3.22-3.67c-1.22-1.17-2.42-2.46-3.8-3.6c-1.32-1.21-2.77-2.29-4.21-3.4c-1.49-1.03-2.96-2.11-4.52-2.99c-1.51-.96-3.09-1.75-4.6-2.55c-.76-.39-1.54-.71-2.28-1.06c-.75-.34-1.48-.68-2.22-.94c-.73-.28-1.44-.56-2.13-.82c-.69-.27-1.38-.45-2.03-.67c-.65-.21-1.28-.41-1.88-.59c-.61-.16-1.18-.3-1.72-.44c-1.08-.29-2.02-.52-2.81-.65c-1.57-.31-2.47-.48-2.47-.48s.91.14 2.49.38c.8.1 1.75.3 2.85.54c.55.12 1.13.24 1.74.37c.61.16 1.24.34 1.91.52c.66.19 1.37.35 2.07.59c.71.24 1.43.48 2.18.74c.76.24 1.51.55 2.28.86c.77.32 1.57.61 2.35.97c1.56.74 3.19 1.48 4.77 2.39c1.62.83 3.16 1.87 4.72 2.85c1.51 1.07 3.04 2.12 4.44 3.29c1.46 1.1 2.74 2.37 4.04 3.53c1.2 1.26 2.45 2.4 3.47 3.64c.53.6 1.04 1.19 1.53 1.76c.46.6.91 1.17 1.33 1.72c.88 1.09 1.6 2.16 2.23 3.12c.32.48.62.92.9 1.33c.25.42.48.8.68 1.14l1.29 2.17c.34.58.15 1.32-.43 1.67s-1.33.15-1.67-.43c0-.03-.01-.05-.02-.06z" fill="#33691E" opacity=".2"/><rect x="0" y="0" width="128" height="128" fill="rgba(0, 0, 0, 0)" /></svg>